<svg xmlns="http://www.w3.org/2000/svg" version="1.1" xmlns:xlink="http://www.w3.org/1999/xlink" viewBox="0 0 200 200" width="200" height="200"><metadata><rdf:RDF xmlns:rdf="http://www.w3.org/1999/02/22-rdf-syntax-ns#" xmlns:dc="http://purl.org/dc/elements/1.1/"><rdf:Description><dc:creator>RealFaviconGenerator</dc:creator><dc:source>https://realfavicongenerator.net</dc:source></rdf:Description></rdf:RDF></metadata><rect width="200" height="200" fill="url('#gradient')"></rect><defs><linearGradient id="gradient" gradientTransform="rotate(45 0.5 0.5)"><stop offset="0%" stop-color="#11255b"></stop><stop offset="100%" stop-color="#0a0e27"></stop></linearGradient></defs><g><g fill="#ffffff" transform="matrix(3.4552723271593617,0,0,3.4552723271593617,4.722623274004093,125.57135803436722)" stroke="#82b7ab" stroke-width="0.2"><path d="M10.73-5.36L10.73-5.20Q10.73-2.60 9.66-1.20Q8.58 0.20 6.63 0.20L6.63 0.20Q5.02 0.20 4.03-1.08L4.03-1.08L3.90 0L0.95 0L0.95-15L4.24-15L4.24-9.72Q5.16-10.76 6.61-10.76L6.61-10.76Q8.58-10.76 9.66-9.35Q10.73-7.93 10.73-5.36L10.73-5.36ZM7.43-5.40L7.43-5.40Q7.43-6.92 7.03-7.57Q6.62-8.22 5.78-8.22L5.78-8.22Q4.67-8.22 4.24-7.37L4.24-7.37L4.24-3.17Q4.66-2.33 5.80-2.33L5.80-2.33Q6.96-2.33 7.28-3.47L7.28-3.47Q7.43-4.02 7.43-5.40ZM17.29 0.20L17.29 0.20Q14.86 0.20 13.36-1.25Q11.86-2.71 11.86-5.03L11.86-5.03L11.86-5.30Q11.86-6.92 12.46-8.16Q13.06-9.40 14.21-10.08Q15.36-10.76 16.94-10.76L16.94-10.76Q19.17-10.76 20.46-9.38Q21.75-8.00 21.75-5.53L21.75-5.53L21.75-4.25L15.21-4.25Q15.38-3.36 15.98-2.85Q16.57-2.34 17.52-2.34L17.52-2.34Q19.08-2.34 19.96-3.44L19.96-3.44L21.46-1.66Q20.85-0.81 19.72-0.31Q18.59 0.20 17.29 0.20ZM16.92-8.22L16.92-8.22Q15.48-8.22 15.21-6.31L15.21-6.31L18.53-6.31L18.53-6.56Q18.54-7.35 18.13-7.79Q17.71-8.22 16.92-8.22ZM23.01-10.57L26.09-10.57L26.20-9.33Q27.29-10.76 29.22-10.76L29.22-10.76Q30.87-10.76 31.68-9.78Q32.50-8.79 32.53-6.81L32.53-6.81L32.53 0L29.23 0L29.23-6.67Q29.23-7.47 28.91-7.85Q28.58-8.22 27.73-8.22L27.73-8.22Q26.77-8.22 26.30-7.46L26.30-7.46L26.30 0L23.01 0L23.01-10.57ZM38.82-2.34L38.82-2.34Q39.51-2.34 39.89-2.72Q40.27-3.10 40.26-3.77L40.26-3.77L43.35-3.77Q43.35-2.03 42.10-0.92Q40.86 0.20 38.90 0.20L38.90 0.20Q36.59 0.20 35.26-1.25Q33.94-2.70 33.94-5.25L33.94-5.25L33.94-5.39Q33.94-6.99 34.53-8.22Q35.12-9.44 36.23-10.10Q37.34-10.76 38.87-10.76L38.87-10.76Q40.93-10.76 42.14-9.62Q43.35-8.48 43.35-6.52L43.35-6.52L40.26-6.52Q40.26-7.34 39.86-7.78Q39.46-8.22 38.79-8.22L38.79-8.22Q37.51-8.22 37.29-6.59L37.29-6.59Q37.23-6.07 37.23-5.17L37.23-5.17Q37.23-3.57 37.61-2.96Q37.99-2.34 38.82-2.34ZM47.96-15L47.96-9.43Q49.01-10.76 50.65-10.76L50.65-10.76Q52.40-10.76 53.29-9.73Q54.18-8.69 54.20-6.67L54.20-6.67L54.20 0L50.90 0L50.90-6.59Q50.90-7.43 50.56-7.83Q50.21-8.22 49.39-8.22L49.39-8.22Q48.38-8.22 47.96-7.58L47.96-7.58L47.96 0L44.67 0L44.67-15L47.96-15Z"></path></g></g></svg>